# xmcd
#
# Track frame offsets: 
#        187
#        15447
#        36392
#        53665
#        68207
#        84865
#        105612
#        122137
#        136180
#        152572
#
# Disc length: 2247 seconds
#
# Revision: 2
# Processed by: cddbd v1.5.2PL0 Copyright (c) Steve Scherf et al.
# Submitted via: ExactAudioCopy v0.90b4
#
DISCID=7508c50a
DTITLE=Poco - Blue and Gray
DYEAR=1981
DGENRE=
TTITLE0=Glorybound
TTITLE1=Blue and Gray
TTITLE2=Streets of Paradise
TTITLE3=The Writing on the Wall
TTITLE4=Down on the River Again
TTITLE5=Please Wait for Me
TTITLE6=Widowmaker
TTITLE7=Here Comes That Girl Again
TTITLE8=Sometimes (We Are All We Got)
TTITLE9=The Land of Glory
EXTD=
EXTT0=
EXTT1=
EXTT2=
EXTT3=
EXTT4=
EXTT5=
EXTT6=
EXTT7=
EXTT8=
EXTT9=
PLAYORDER=
